<svg id="图层_1" data-name="图层 1" xmlns="http://www.w3.org/2000/svg" xmlns:xlink="http://www.w3.org/1999/xlink" viewBox="0 0 352.22 86.6"><defs><style>.cls-1{fill:url(#未命名的渐变);}.cls-2{fill:url(#未命名的渐变_2);}.cls-3{fill:url(#未命名的渐变_3);}.cls-4{fill:#fff;}</style><linearGradient id="未命名的渐变" x1="49.77" y1="-23.59" x2="72.75" y2="-23.59" gradientTransform="matrix(1, 0, 0, -1, -49.78, 37)" gradientUnits="userSpaceOnUse"><stop offset="0.01" stop-color="#4776e6"/><stop offset="1" stop-color="#8e54e9"/></linearGradient><linearGradient id="未命名的渐变_2" x1="103.97" y1="19.54" x2="126.95" y2="19.54" xlink:href="#未命名的渐变"/><linearGradient id="未命名的渐变_3" x1="57.56" y1="27.81" x2="118.17" y2="-32.81" xlink:href="#未命名的渐变"/></defs><title>logo</title><path class="cls-1" d="M2.1,54.12a11.29,11.29,0,0,1,15.71-2.91l.29.2A11.35,11.35,0,0,1,4.8,69.81h0A11.14,11.14,0,0,1,2,54.3Z"/><path class="cls-2" d="M56.29,11A11.28,11.28,0,0,1,72,8.06l.32.23a11.35,11.35,0,1,1-16,2.71Z"/><path class="cls-3" d="M67.54,45c-3.53-4.7-8.4-7.08-13.92-8.52-5.7-1.48-8.49-5.71-7.77-11.38A20.74,20.74,0,1,0,20.58,40.86l-.2.13c6.78,1.06,10,5.77,9.14,12.48-1.91,14.44,8.12,25.71,22.6,24.93,8.1-.44,14.23-4.59,17.71-12S72.57,51.68,67.54,45Z"/><path class="cls-4" d="M121.62,63.12a4.39,4.39,0,0,0,.41,2.2,1.7,1.7,0,0,0,1.58.66h.88a5.77,5.77,0,0,0,1.17-.15v5.8q-.43.15-1.14.33c-.46.12-.94.23-1.43.33s-1,.17-1.47.22-.83.07-1.24.07a8.12,8.12,0,0,1-4.26-1,5.17,5.17,0,0,1-2.2-3.6,14.79,14.79,0,0,1-6.13,3.52,24.08,24.08,0,0,1-7,1.1,17.45,17.45,0,0,1-4.92-.69,12.9,12.9,0,0,1-4.15-2.06,9.85,9.85,0,0,1-2.86-3.45,10.56,10.56,0,0,1-1.06-4.88,11.35,11.35,0,0,1,1.28-5.72,9.55,9.55,0,0,1,3.38-3.45,15.18,15.18,0,0,1,4.69-1.79,52.16,52.16,0,0,1,5.25-.85,42.18,42.18,0,0,1,4.33-.62,19.43,19.43,0,0,0,3.63-.63,5.56,5.56,0,0,0,2.5-1.35,3.74,3.74,0,0,0,.91-2.75,4.31,4.31,0,0,0-.77-2.65,5.16,5.16,0,0,0-1.9-1.57,8.34,8.34,0,0,0-2.54-.74,19.52,19.52,0,0,0-2.64-.18,10.52,10.52,0,0,0-5.79,1.47,5.71,5.71,0,0,0-2.57,4.55H89.22A12.69,12.69,0,0,1,91,39.15a12.17,12.17,0,0,1,3.93-3.89,15.86,15.86,0,0,1,5.39-2.06,31.92,31.92,0,0,1,6.17-.58,26.08,26.08,0,0,1,5.5.58,15.66,15.66,0,0,1,4.88,1.91,10.6,10.6,0,0,1,3.48,3.41,9.34,9.34,0,0,1,1.32,5.1Zm-8.4-10.57a10,10,0,0,1-4.7,1.51c-1.86.17-3.71.43-5.57.77a17.49,17.49,0,0,0-2.57.62,7.82,7.82,0,0,0-2.2,1.1,4.82,4.82,0,0,0-1.51,1.84,6.33,6.33,0,0,0-.55,2.75,3.47,3.47,0,0,0,.81,2.35A6,6,0,0,0,98.87,65a8.74,8.74,0,0,0,2.5.77,15.62,15.62,0,0,0,2.46.22,13.17,13.17,0,0,0,3-.37,10.23,10.23,0,0,0,3-1.24,8.24,8.24,0,0,0,2.39-2.24,5.68,5.68,0,0,0,1-3.34Z"/><path class="cls-4" d="M165.72,69.58q0,8.58-4.8,12.8T147.08,86.6a29.4,29.4,0,0,1-5.76-.59A17,17,0,0,1,136,84a12.65,12.65,0,0,1-4-3.67,11.13,11.13,0,0,1-1.9-5.57h8.36a6.57,6.57,0,0,0,1.25,2.86,6.21,6.21,0,0,0,2.09,1.72,7.92,7.92,0,0,0,2.68.81,26.38,26.38,0,0,0,3.08.18q5.06,0,7.41-2.49c1.56-1.67,2.35-4.06,2.35-7.19v-5.8h-.14a12.92,12.92,0,0,1-11.37,6.68A17.2,17.2,0,0,1,138.11,70a14.72,14.72,0,0,1-5.29-4.33,17.93,17.93,0,0,1-3-6.35,29.43,29.43,0,0,1-1-7.7A22.4,22.4,0,0,1,130,44.32a18.62,18.62,0,0,1,3.37-6.06A16.1,16.1,0,0,1,146,32.58a14.71,14.71,0,0,1,6.61,1.5,10.27,10.27,0,0,1,4.62,4.75h.15V33.62h8.36ZM147.16,65a9.29,9.29,0,0,0,4.73-1.13,9.45,9.45,0,0,0,3.16-3,13.48,13.48,0,0,0,1.76-4.26,21.48,21.48,0,0,0,.55-4.8,19.1,19.1,0,0,0-.59-4.7,12.55,12.55,0,0,0-1.8-4,8.69,8.69,0,0,0-3.15-2.78,9.78,9.78,0,0,0-4.66-1,8.79,8.79,0,0,0-4.7,1.17,9.49,9.49,0,0,0-3.08,3,13.14,13.14,0,0,0-1.69,4.25,22.26,22.26,0,0,0-.51,4.74,17.23,17.23,0,0,0,.59,4.58,12.75,12.75,0,0,0,1.79,4,9.5,9.5,0,0,0,3.09,2.86A8.67,8.67,0,0,0,147.16,65Z"/><path class="cls-4" d="M194,19.17h9.18V63.63h26.63v7.93H194Z"/><path class="cls-4" d="M266.67,63.12a4.39,4.39,0,0,0,.4,2.2,1.7,1.7,0,0,0,1.58.66h.88a5.77,5.77,0,0,0,1.17-.15v5.8c-.29.1-.67.21-1.13.33s-1,.23-1.44.33a14.28,14.28,0,0,1-1.46.22c-.42,0-.83.07-1.25.07a8.12,8.12,0,0,1-4.26-1A5.17,5.17,0,0,1,259,68a14.7,14.7,0,0,1-6.12,3.52,24.14,24.14,0,0,1-7,1.1,17.45,17.45,0,0,1-4.92-.69,13,13,0,0,1-4.14-2.06,9.65,9.65,0,0,1-2.86-3.45,10.57,10.57,0,0,1-1.07-4.88,11.26,11.26,0,0,1,1.29-5.72,9.53,9.53,0,0,1,3.37-3.45,15.24,15.24,0,0,1,4.7-1.79,51.06,51.06,0,0,1,5.24-.85,42.18,42.18,0,0,1,4.33-.62,19.43,19.43,0,0,0,3.63-.63,5.46,5.46,0,0,0,2.5-1.35,3.75,3.75,0,0,0,.92-2.75,4.33,4.33,0,0,0-.77-2.65,5.19,5.19,0,0,0-1.91-1.57,8.28,8.28,0,0,0-2.53-.74,19.55,19.55,0,0,0-2.65-.18,10.45,10.45,0,0,0-5.75,1.45,5.71,5.71,0,0,0-2.57,4.55h-8.43A12.44,12.44,0,0,1,236,39.13a12,12,0,0,1,3.92-3.89,15.91,15.91,0,0,1,5.4-2.06,31.82,31.82,0,0,1,6.16-.58,26.08,26.08,0,0,1,5.5.58,15.66,15.66,0,0,1,4.88,1.91,10.63,10.63,0,0,1,3.49,3.41,9.34,9.34,0,0,1,1.32,5.1ZM258.3,52.55a9.92,9.92,0,0,1-4.69,1.51c-1.86.17-3.72.42-5.58.77a17.49,17.49,0,0,0-2.57.62,7.82,7.82,0,0,0-2.2,1.1,4.79,4.79,0,0,0-1.5,1.84,6.18,6.18,0,0,0-.55,2.75,3.53,3.53,0,0,0,.8,2.35,6,6,0,0,0,2,1.5,8.77,8.77,0,0,0,2.49.77,15.62,15.62,0,0,0,2.46.22,13.17,13.17,0,0,0,3-.37,10.23,10.23,0,0,0,3-1.24,8.24,8.24,0,0,0,2.39-2.24,5.68,5.68,0,0,0,.95-3.34Z"/><path class="cls-4" d="M275.91,19.17h8.37V38.54h.14a11.85,11.85,0,0,1,2.13-2.5,13.89,13.89,0,0,1,2.75-1.87A14.81,14.81,0,0,1,292.46,33a13.79,13.79,0,0,1,3.26-.4,18.15,18.15,0,0,1,7.82,1.57,15.52,15.52,0,0,1,5.54,4.33,19,19,0,0,1,3.3,6.42,27.07,27.07,0,0,1,1.1,7.85,27.69,27.69,0,0,1-1,7.41,19.21,19.21,0,0,1-3,6.35,14.66,14.66,0,0,1-12.36,6,29.17,29.17,0,0,1-3.85-.25,14.45,14.45,0,0,1-3.71-1,12.74,12.74,0,0,1-3.19-1.91A9.32,9.32,0,0,1,284,66.34h-.14v5.21h-7.93Zm29.2,33.46a18.76,18.76,0,0,0-.66-5,13.62,13.62,0,0,0-2-4.3,10.3,10.3,0,0,0-3.3-3,9,9,0,0,0-4.55-1.14q-5.28,0-8,3.67t-2.68,9.76a19.1,19.1,0,0,0,.7,5.32,11.92,11.92,0,0,0,2.09,4.22,10.32,10.32,0,0,0,3.34,2.78,10.52,10.52,0,0,0,9.36-.14,10.39,10.39,0,0,0,3.26-3,12.08,12.08,0,0,0,1.83-4.25A21.45,21.45,0,0,0,305.11,52.63Z"/><path class="cls-4" d="M326.83,59.38c.25,2.44,1.18,4.16,2.79,5.13a10.93,10.93,0,0,0,5.8,1.47,24,24,0,0,0,2.68-.18,11.42,11.42,0,0,0,2.82-.7,5.37,5.37,0,0,0,2.17-1.5,4.06,4.06,0,0,0-.41-5.25,8,8,0,0,0-2.82-1.65,28.18,28.18,0,0,0-3.93-1.07c-1.47-.29-3-.61-4.47-1a41.41,41.41,0,0,1-4.52-1.25,14.34,14.34,0,0,1-3.89-2,9.28,9.28,0,0,1-2.75-3.19,10.25,10.25,0,0,1-1-4.81,8.65,8.65,0,0,1,1.5-5.17,11.42,11.42,0,0,1,3.81-3.37,16.48,16.48,0,0,1,5.14-1.8,30.46,30.46,0,0,1,5.39-.51,24.7,24.7,0,0,1,5.62.62,15.21,15.21,0,0,1,4.84,2,12.1,12.1,0,0,1,3.6,3.63A12.62,12.62,0,0,1,351,44.22h-8.77a5.2,5.2,0,0,0-2.75-4,11.4,11.4,0,0,0-5-1,18.19,18.19,0,0,0-2.09.15,9.37,9.37,0,0,0-2.28.55,4.8,4.8,0,0,0-1.8,1.17,2.77,2.77,0,0,0-.73,2,3.15,3.15,0,0,0,1.06,2.49,8.4,8.4,0,0,0,2.79,1.58,26.5,26.5,0,0,0,3.93,1.06c1.47.3,3,.62,4.55,1a46.29,46.29,0,0,1,4.47,1.25,14.16,14.16,0,0,1,3.93,2,9.07,9.07,0,0,1,3.85,7.85A10.12,10.12,0,0,1,350.66,66a12.18,12.18,0,0,1-4,3.82A18,18,0,0,1,341.19,72a27.59,27.59,0,0,1-5.94.66,26.07,26.07,0,0,1-6.64-.8,15.46,15.46,0,0,1-5.28-2.46,11.81,11.81,0,0,1-3.52-4.11,13,13,0,0,1-1.36-5.83Z"/></svg>