<svg id="图层_1" data-name="图层 1" xmlns="http://www.w3.org/2000/svg" xmlns:xlink="http://www.w3.org/1999/xlink" viewBox="0 0 96 96"><defs><style>.cls-1{fill:url(#未命名的渐变);}.cls-2{fill:url(#未命名的渐变_2);}.cls-3{fill:url(#未命名的渐变_3);}</style><linearGradient id="未命名的渐变" x1="59.29" y1="-624.98" x2="82.27" y2="-624.98" gradientTransform="matrix(1, 0, 0, -1, -49.78, -555.6)" gradientUnits="userSpaceOnUse"><stop offset="0.01" stop-color="#4776e6"/><stop offset="1" stop-color="#8e54e9"/></linearGradient><linearGradient id="未命名的渐变_2" x1="113.49" y1="-581.84" x2="136.47" y2="-581.84" xlink:href="#未命名的渐变"/><linearGradient id="未命名的渐变_3" x1="67.08" y1="-573.58" x2="127.69" y2="-634.19" xlink:href="#未命名的渐变"/></defs><title>logo</title><path class="cls-1" d="M11.62,62.91A11.3,11.3,0,0,1,27.33,60l.29.21a11.35,11.35,0,0,1-13.3,18.4h0A11.15,11.15,0,0,1,11.5,63.08Z"/><path class="cls-2" d="M65.81,19.79a11.28,11.28,0,0,1,15.68-2.94l.32.23a11.35,11.35,0,1,1-16,2.71Z"/><path class="cls-3" d="M77.06,53.79c-3.53-4.7-8.4-7.08-13.92-8.52-5.7-1.48-8.49-5.71-7.77-11.38A20.74,20.74,0,1,0,30.1,49.65l-.2.13c6.78,1.06,10,5.77,9.14,12.48C37.13,76.7,47.16,88,61.64,87.19c8.1-.44,14.23-4.59,17.71-12S82.09,60.47,77.06,53.79Z"/></svg>