<?xml version="1.0" encoding="UTF-8"?>
<svg width="55px" height="55px" viewBox="0 0 55 55" version="1.1" xmlns="http://www.w3.org/2000/svg" xmlns:xlink="http://www.w3.org/1999/xlink">
    <!-- Generator: Sketch 60 (88103) - https://sketch.com -->
    <title>facebook</title>
    <desc>Created with Sketch.</desc>
    <g id="Page-1" stroke="none" stroke-width="1" fill="none" fill-rule="evenodd">
        <g id="Xag-Labs-" transform="translate(-498.000000, -3749.000000)">
            <g id="keep-in-touch" transform="translate(498.000000, 3748.000000)">
                <g id="social">
                    <g id="facebook">
                        <polygon id="Fill-1" fill-opacity="0.2" fill="#FFFFFF" points="0 55.4344 54.4256 55.4344 54.4256 0.9992 0 0.9992"></polygon>
                        <path d="M20.65472,23.60944 L23.46752,23.60944 L23.46752,20.87504 C23.46752,19.66864 23.49792,17.80944 24.37472,16.65744 C25.29632,15.43824 26.56352,14.60784 28.74112,14.60784 C32.28992,14.60784 33.78592,15.11344 33.78592,15.11344 L33.08192,19.28304 C33.08192,19.28304 31.90912,18.94384 30.81632,18.94384 C29.72192,18.94384 28.74112,19.33584 28.74112,20.43024 L28.74112,23.60944 L33.22752,23.60944 L32.91552,27.68144 L28.74112,27.68144 L28.74112,41.82704 L23.46752,41.82704 L23.46752,27.68144 L20.65472,27.68144 L20.65472,23.60944 Z" id="Fill-2" fill="#FEFEFE"></path>
                    </g>
                </g>
            </g>
        </g>
    </g>
</svg>