<svg t="1625161446959" class="icon" viewBox="0 0 1024 1024" version="1.1" xmlns="http://www.w3.org/2000/svg" p-id="2403" width="500" height="500"><path d="M895.07 350.25C832.12 201.09 684.41 96 512 96 282.45 96 96 281.96 96 512c0 229.55 185.96 416 416 416 230.03 0 416-185.97 416-416 0-77-32.93-161.75-32.93-161.75zM157.99 512c0-44.07 8.23-86.69 22.76-125.43 18.89 10.65 43.58 12.59 43.58 33.9 0 69.73 2.42 144.8 69.74 145.77 1.94 0 37.29 12.59 54.24 54.24 5.81 14.53 29.06 0 54.24 0 12.59 0 0 20.34 0 63.92 0 43.59 98.79 110.42 98.79 110.42-0.48 28.57 0.97 52.3 2.91 70.7C312.47 862.14 157.99 705.23 157.99 512z m439.25 343.36c14.04-56.18 20.82-88.14 49.88-111.87 42.13-34.38 5.33-73.13-27.12-68.77-25.67 3.87-9.2-29.54-31.97-31.48-22.28-1.45-52.3-44.07-84.26-59.08-16.95-7.75-34.38-28.57-60.53-29.54-23.25-0.97-57.63 18.89-57.63 3.87 0-48.91-5.33-83.78-6.29-97.82-0.97-11.62-7.75-3.87 23.73-2.91 16.95 0.48 8.72-32.94 26.15-34.38 16.46-0.97 56.66 15.01 67.31 8.23 9.2-6.29 69.74 150.13 69.74 25.67 0-14.53-7.75-40.19 0-54.24 31.96-55.21 61.5-100.25 59.08-107.03-1.45-3.87-32.93-6.78-57.14 0.97-8.23 2.42 2.42 15.01-9.2 17.92-45.52 9.68-84.75-11.62-70.7-31.96 14.04-20.83 66.35-8.71 70.7-50.37 2.42-23.24 4.84-50.85 6.29-71.19 126.4 18.89 231.49 104.6 276.53 220.35-120.1 87.65-89.59 149.16-49.88 184.03 20.82 18.4 40.68 46.49 53.76 66.34-41.66 109.94-133.68 194.69-248.45 223.26z m0 0" p-id="2404" fill="#FFFFFF"></path></svg>