<?xml version="1.0" encoding="UTF-8"?>
<svg width="55px" height="55px" viewBox="0 0 55 55" version="1.1" xmlns="http://www.w3.org/2000/svg" xmlns:xlink="http://www.w3.org/1999/xlink">
    <!-- Generator: Sketch 60 (88103) - https://sketch.com -->
    <title>linkedin</title>
    <desc>Created with Sketch.</desc>
    <g id="Page-1" stroke="none" stroke-width="1" fill="none" fill-rule="evenodd">
        <g id="Xag-Labs-" transform="translate(-887.000000, -3748.000000)">
            <g id="keep-in-touch" transform="translate(498.000000, 3748.000000)">
                <g id="social">
                    <g id="linkedin" transform="translate(389.000000, 0.000000)">
                        <polygon id="Fill-1" fill-opacity="0.2" fill="#FFFFFF" points="0 54.42496 54.4256 54.42496 54.4256 -0.00064 0 -0.00064"></polygon>
                        <path d="M40.79536,38.59056 L34.78096,38.59056 L34.78096,29.80496 C34.78096,27.50416 33.84016,25.93616 31.77136,25.93616 C30.18896,25.93616 29.30896,26.99376 28.89936,28.01616 C28.74576,28.38096 28.76976,28.89136 28.76976,29.40336 L28.76976,38.59056 L22.81136,38.59056 C22.81136,38.59056 22.88816,23.02576 22.81136,21.61296 L28.76976,21.61296 L28.76976,24.27696 C29.12176,23.11056 31.02576,21.44816 34.06416,21.44816 C37.83376,21.44816 40.79536,23.88976 40.79536,29.15056 L40.79536,38.59056 Z M16.78576,19.48816 L16.74736,19.48816 C14.82736,19.48816 13.58256,18.19056 13.58256,16.54736 C13.58256,14.86896 14.86416,13.59856 16.82256,13.59856 C18.77936,13.59856 19.98256,14.86576 20.02096,16.54256 C20.02096,18.18576 18.77936,19.48816 16.78576,19.48816 L16.78576,19.48816 Z M14.26896,38.59056 L19.57296,38.59056 L19.57296,21.61296 L14.26896,21.61296 L14.26896,38.59056 Z" id="Fill-2" fill="#FEFEFE"></path>
                    </g>
                </g>
            </g>
        </g>
    </g>
</svg>