<svg id="图层_1" data-name="图层 1" xmlns="http://www.w3.org/2000/svg" xmlns:xlink="http://www.w3.org/1999/xlink" viewBox="0 0 352.22 86.6"><defs><style>.cls-1{fill:url(#未命名的渐变_19);}.cls-2{fill:url(#未命名的渐变_19-2);}.cls-3{fill:url(#未命名的渐变_19-3);}.cls-4{fill:#fff;}</style><linearGradient id="未命名的渐变_19" x1="49.78" y1="111.62" x2="72.76" y2="111.62" gradientUnits="userSpaceOnUse"><stop offset="0.01" stop-color="#4776e6"/><stop offset="1" stop-color="#8e54e9"/></linearGradient><linearGradient id="未命名的渐变_19-2" x1="103.97" y1="68.47" x2="126.95" y2="68.47" xlink:href="#未命名的渐变_19"/><linearGradient id="未命名的渐变_19-3" x1="57.56" y1="60.2" x2="118.17" y2="120.81" xlink:href="#未命名的渐变_19"/></defs><title>logo</title><path class="cls-1" d="M51.88,105.12a11.3,11.3,0,0,1,16-2.71,11.35,11.35,0,1,1-13.3,18.4A11.15,11.15,0,0,1,51.88,105.12Z" transform="translate(-49.78 -51)"/><path class="cls-2" d="M106.07,62a11.28,11.28,0,0,1,16-2.71,11.35,11.35,0,1,1-16,2.71Z" transform="translate(-49.78 -51)"/><path class="cls-3" d="M117.32,96c-3.53-4.7-8.4-7.08-13.92-8.52-5.7-1.48-8.49-5.71-7.77-11.38A20.74,20.74,0,1,0,70.36,91.86l-.2.13c6.78,1.06,10,5.77,9.14,12.48-1.91,14.44,8.12,25.71,22.6,24.93,8.1-.44,14.23-4.59,17.71-12S122.35,102.68,117.32,96Z" transform="translate(-49.78 -51)"/><path class="cls-4" d="M171.4,114.12a4.4,4.4,0,0,0,.41,2.2,1.7,1.7,0,0,0,1.58.66h.88a5.35,5.35,0,0,0,1.17-.15v5.8q-.44.15-1.14.33c-.46.12-.94.23-1.43.33s-1,.17-1.47.22a12.3,12.3,0,0,1-1.24.07,8.12,8.12,0,0,1-4.26-1,5.15,5.15,0,0,1-2.2-3.6,14.69,14.69,0,0,1-6.13,3.52,23.86,23.86,0,0,1-7,1.1,17.36,17.36,0,0,1-4.92-.69,12.91,12.91,0,0,1-4.15-2.06,9.85,9.85,0,0,1-2.86-3.45,10.6,10.6,0,0,1-1.06-4.88,11.35,11.35,0,0,1,1.28-5.72,9.56,9.56,0,0,1,3.38-3.45,15.09,15.09,0,0,1,4.69-1.79q2.61-.56,5.25-.85a43.37,43.37,0,0,1,4.33-.62,19.48,19.48,0,0,0,3.63-.63,5.61,5.61,0,0,0,2.5-1.35,3.74,3.74,0,0,0,.91-2.75,4.27,4.27,0,0,0-.77-2.65,5.14,5.14,0,0,0-1.9-1.57,8.44,8.44,0,0,0-2.54-.74,20.67,20.67,0,0,0-2.64-.18,10.45,10.45,0,0,0-5.79,1.47,5.7,5.7,0,0,0-2.57,4.55H139a12.68,12.68,0,0,1,1.76-6.09,12.17,12.17,0,0,1,3.93-3.89,16,16,0,0,1,5.39-2.06,32.27,32.27,0,0,1,6.17-.58,26.08,26.08,0,0,1,5.5.58,15.68,15.68,0,0,1,4.88,1.91,10.61,10.61,0,0,1,3.48,3.41,9.39,9.39,0,0,1,1.32,5.1ZM163,103.55a10.05,10.05,0,0,1-4.7,1.51c-1.86.17-3.71.43-5.57.77a16.9,16.9,0,0,0-2.57.62,7.82,7.82,0,0,0-2.2,1.1,4.88,4.88,0,0,0-1.51,1.84,6.36,6.36,0,0,0-.55,2.75,3.51,3.51,0,0,0,.81,2.35,6.06,6.06,0,0,0,1.94,1.5,9,9,0,0,0,2.5.77,15,15,0,0,0,2.46.22,13.36,13.36,0,0,0,3-.37,10,10,0,0,0,3-1.24,8.12,8.12,0,0,0,2.39-2.24,5.72,5.72,0,0,0,.95-3.34Z" transform="translate(-49.78 -51)"/><path class="cls-4" d="M215.5,120.58q0,8.58-4.8,12.8t-13.84,4.22a29.18,29.18,0,0,1-5.76-.59,17.07,17.07,0,0,1-5.28-2,12.75,12.75,0,0,1-4-3.67,11.11,11.11,0,0,1-1.9-5.57h8.36a6.66,6.66,0,0,0,1.25,2.86,6.28,6.28,0,0,0,2.09,1.72,7.83,7.83,0,0,0,2.68.81,25.15,25.15,0,0,0,3.08.18q5.06,0,7.41-2.49c1.56-1.67,2.35-4.06,2.35-7.19v-5.8H207a12.94,12.94,0,0,1-11.37,6.68,17.31,17.31,0,0,1-7.74-1.58,14.81,14.81,0,0,1-5.29-4.33,17.9,17.9,0,0,1-3-6.35,29.69,29.69,0,0,1-1-7.7,22.46,22.46,0,0,1,1.18-7.26,18.65,18.65,0,0,1,3.37-6.06,16.11,16.11,0,0,1,12.62-5.68,14.62,14.62,0,0,1,6.61,1.5A10.24,10.24,0,0,1,207,89.83h.15V84.62h8.36ZM196.94,116a9.2,9.2,0,0,0,4.73-1.13,9.39,9.39,0,0,0,3.16-3,13.52,13.52,0,0,0,1.76-4.26,21.68,21.68,0,0,0,.55-4.8,18.8,18.8,0,0,0-.59-4.7,12.58,12.58,0,0,0-1.8-4,8.64,8.64,0,0,0-3.15-2.78,9.8,9.8,0,0,0-4.66-1,8.83,8.83,0,0,0-4.7,1.17,9.45,9.45,0,0,0-3.08,3,13.14,13.14,0,0,0-1.69,4.25,22.61,22.61,0,0,0-.51,4.74,17.6,17.6,0,0,0,.59,4.58,12.77,12.77,0,0,0,1.79,4,9.51,9.51,0,0,0,3.09,2.86A8.66,8.66,0,0,0,196.94,116Z" transform="translate(-49.78 -51)"/><path class="cls-4" d="M243.73,70.17h9.18v44.46h26.63v7.93H243.73Z" transform="translate(-49.78 -51)"/><path class="cls-4" d="M316.45,114.12a4.42,4.42,0,0,0,.4,2.2,1.7,1.7,0,0,0,1.58.66h.88a5.35,5.35,0,0,0,1.17-.15v5.8c-.29.1-.67.21-1.13.33s-1,.23-1.44.33a14.71,14.71,0,0,1-1.46.22,12.48,12.48,0,0,1-1.25.07,8.14,8.14,0,0,1-4.26-1,5.15,5.15,0,0,1-2.2-3.6,14.65,14.65,0,0,1-6.12,3.52,24,24,0,0,1-7,1.1,17.41,17.41,0,0,1-4.92-.69,13,13,0,0,1-4.14-2.06,9.64,9.64,0,0,1-2.86-3.45,10.6,10.6,0,0,1-1.07-4.88,11.24,11.24,0,0,1,1.29-5.72,9.53,9.53,0,0,1,3.37-3.45,15.15,15.15,0,0,1,4.7-1.79q2.59-.56,5.24-.85a43.37,43.37,0,0,1,4.33-.62,19.48,19.48,0,0,0,3.63-.63,5.5,5.5,0,0,0,2.5-1.35,3.74,3.74,0,0,0,.92-2.75,4.34,4.34,0,0,0-.77-2.65,5.17,5.17,0,0,0-1.91-1.57,8.38,8.38,0,0,0-2.53-.74,20.7,20.7,0,0,0-2.65-.18A10.47,10.47,0,0,0,295,91.67a5.72,5.72,0,0,0-2.57,4.55H284a12.46,12.46,0,0,1,1.76-6.09,12,12,0,0,1,3.92-3.89,16,16,0,0,1,5.4-2.06,32.16,32.16,0,0,1,6.16-.58,26,26,0,0,1,5.5.58,15.59,15.59,0,0,1,4.88,1.91,10.64,10.64,0,0,1,3.49,3.41,9.39,9.39,0,0,1,1.32,5.1Zm-8.37-10.57a10,10,0,0,1-4.69,1.51q-2.79.25-5.58.77a16.9,16.9,0,0,0-2.57.62,8,8,0,0,0-2.2,1.1,4.77,4.77,0,0,0-1.5,1.84,6.22,6.22,0,0,0-.55,2.75,3.51,3.51,0,0,0,.8,2.35,6,6,0,0,0,1.95,1.5,9,9,0,0,0,2.49.77,15.22,15.22,0,0,0,2.46.22,13.36,13.36,0,0,0,3-.37,10,10,0,0,0,3-1.24,8.12,8.12,0,0,0,2.39-2.24,5.72,5.72,0,0,0,.95-3.34Z" transform="translate(-49.78 -51)"/><path class="cls-4" d="M325.69,70.17h8.37V89.54h.14a11.81,11.81,0,0,1,2.13-2.5,13.74,13.74,0,0,1,2.75-1.87A14.62,14.62,0,0,1,342.24,84a13.65,13.65,0,0,1,3.26-.4,18.16,18.16,0,0,1,7.82,1.57,15.62,15.62,0,0,1,5.54,4.33,19,19,0,0,1,3.3,6.42,27.33,27.33,0,0,1,1.1,7.85,27.71,27.71,0,0,1-1,7.41,19.12,19.12,0,0,1-3,6.35,15,15,0,0,1-5.1,4.4,15.14,15.14,0,0,1-7.26,1.65,29.39,29.39,0,0,1-3.85-.25,14.4,14.4,0,0,1-3.71-1,12.8,12.8,0,0,1-3.19-1.91,9.25,9.25,0,0,1-2.39-3.08h-.14v5.21h-7.93Zm29.2,33.46a18.82,18.82,0,0,0-.66-5,13.57,13.57,0,0,0-2-4.3,10.3,10.3,0,0,0-3.3-3,9,9,0,0,0-4.55-1.14q-5.28,0-8,3.67t-2.68,9.76a19.28,19.28,0,0,0,.7,5.32,11.93,11.93,0,0,0,2.09,4.22,10.38,10.38,0,0,0,3.34,2.78,10.52,10.52,0,0,0,9.36-.14,10.34,10.34,0,0,0,3.26-3,12.13,12.13,0,0,0,1.83-4.25A21.48,21.48,0,0,0,354.89,103.63Z" transform="translate(-49.78 -51)"/><path class="cls-4" d="M376.61,110.38c.25,2.44,1.18,4.16,2.79,5.13a11,11,0,0,0,5.8,1.47,23,23,0,0,0,2.68-.18,11.65,11.65,0,0,0,2.82-.7,5.36,5.36,0,0,0,2.17-1.5,4.05,4.05,0,0,0-.41-5.25,8.06,8.06,0,0,0-2.82-1.65,27.64,27.64,0,0,0-3.93-1.07c-1.47-.29-3-.61-4.47-.95a41.55,41.55,0,0,1-4.52-1.25,14.4,14.4,0,0,1-3.89-2,9.15,9.15,0,0,1-2.75-3.19,10.25,10.25,0,0,1-1-4.81,8.66,8.66,0,0,1,1.5-5.17,11.46,11.46,0,0,1,3.81-3.37,16.59,16.59,0,0,1,5.14-1.8,30.34,30.34,0,0,1,5.39-.51,24.51,24.51,0,0,1,5.62.62,15.35,15.35,0,0,1,4.84,2,12,12,0,0,1,3.6,3.63,12.55,12.55,0,0,1,1.79,5.39H392a5.2,5.2,0,0,0-2.75-4,11.32,11.32,0,0,0-4.95-1,17.19,17.19,0,0,0-2.09.15,9.28,9.28,0,0,0-2.28.55,4.84,4.84,0,0,0-1.8,1.17,2.8,2.8,0,0,0-.73,2,3.18,3.18,0,0,0,1.06,2.49,8.26,8.26,0,0,0,2.79,1.58,26.42,26.42,0,0,0,3.93,1.06c1.47.3,3,.62,4.55,1a45.5,45.5,0,0,1,4.47,1.25,14.22,14.22,0,0,1,3.93,2,9.07,9.07,0,0,1,3.85,7.85,10.16,10.16,0,0,1-1.54,5.72,12.18,12.18,0,0,1-4,3.82,18.12,18.12,0,0,1-5.47,2.12,27.58,27.58,0,0,1-5.94.66,26.21,26.21,0,0,1-6.64-.8,15.5,15.5,0,0,1-5.28-2.46,11.81,11.81,0,0,1-3.52-4.11,13,13,0,0,1-1.36-5.83Z" transform="translate(-49.78 -51)"/></svg>