<?xml version="1.0" encoding="UTF-8"?>
<svg width="155px" height="38px" viewBox="0 0 155 38" version="1.1" xmlns="http://www.w3.org/2000/svg" xmlns:xlink="http://www.w3.org/1999/xlink">
    <!-- Generator: Sketch 60 (88103) - https://sketch.com -->
    <title>编组备份 2</title>
    <desc>Created with Sketch.</desc>
    <defs>
        <polygon id="path-1" points="0 0.143471118 10.7834012 0.143471118 10.7834012 10.8651758 0 10.8651758"></polygon>
        <polygon id="path-3" points="0.184197297 0.00375849057 16.8239811 0.00375849057 16.8239811 24 0.184197297 24"></polygon>
    </defs>
    <g id="Page-1" stroke="none" stroke-width="1" fill="none" fill-rule="evenodd">
        <g id="Xag-Labs-" transform="translate(-643.000000, -3865.000000)">
            <g id="编组备份-2" transform="translate(643.000000, 3865.000000)">
                <g id="编组" transform="translate(0.000000, 21.000000)">
                    <mask id="mask-2" fill="white">
                        <use xlink:href="#path-1"></use>
                    </mask>
                    <g id="Clip-2"></g>
                    <path d="M0.985265217,2.45180435 C2.76200435,-0.0418478261 6.03952609,-0.59423913 8.5107,1.18297826 C10.9914391,2.96641304 11.5093957,6.13202174 9.72739565,8.62136957 C7.97504783,11.069587 4.74391739,11.586587 2.27226522,9.81463043 C-0.158734783,8.07232609 -0.722126087,4.8478913 0.985265217,2.45180435" id="Fill-1" fill="#FFFFFF" mask="url(#mask-2)"></path>
                </g>
                <path d="M24.9138483,5.15291206 C26.561515,2.82715867 29.6004953,2.31196013 31.8925925,3.96951664 C34.1931166,5.63331797 34.6730023,8.58533868 33.0209004,10.9070775 C31.3958532,13.1904553 28.3994505,13.6730915 26.1069098,12.0199956 C23.852955,10.3950014 23.3304917,7.38766935 24.9138483,5.15291206" id="Fill-3" fill="#FFFFFF"></path>
                <path d="M30.0059706,19.4961496 C28.4310416,17.462126 26.2580037,16.4285505 23.7895528,15.8044299 C21.2455417,15.1613162 19.9965228,13.3278239 20.3201571,10.8737446 C20.4539805,10.2659668 20.5258993,9.63522073 20.5258993,8.98857348 C20.5258993,4.02431906 16.3787379,0 11.2629496,0 C6.14716138,0 2,4.02431906 2,8.98857348 C2,13.2067984 4.99464106,16.7443652 9.03255881,17.713011 L8.94425354,17.7686651 C11.9739436,18.2271486 13.4250632,20.267356 13.0276895,23.1755018 C12.1719477,29.4357009 16.6532125,34.3217746 23.1199803,33.9834332 C26.7363997,33.7939444 29.476139,31.9953463 31.0319504,28.7824282 C32.6077898,25.5284321 32.2554791,22.4007619 30.0059706,19.4961496" id="Fill-5" fill="#FFFFFF"></path>
                <path d="M50.4321705,22.9834862 C49.8606535,23.3582569 49.1578112,23.5834862 48.3236434,23.6605505 C47.4885605,23.7380734 46.6543928,23.853211 45.8197674,24.0073394 C45.4244186,24.0733945 45.0395941,24.1674312 44.6666667,24.2880734 C44.2928241,24.4091743 43.9633667,24.5743119 43.6782946,24.7834862 C43.3927649,24.9931193 43.1676357,25.2678899 43.002907,25.6091743 C42.8381783,25.9509174 42.755814,26.3637615 42.755814,26.8477064 C42.755814,27.266055 42.8761574,27.6183486 43.1182171,27.9045872 C43.3593615,28.1912844 43.6503822,28.4165138 43.9912791,28.5816514 C44.3312608,28.746789 44.7046458,28.8623853 45.1114341,28.9284404 C45.5177649,28.9944954 45.8856589,29.0275229 46.2151163,29.0275229 C46.6319714,29.0275229 47.0826873,28.9729358 47.5658915,28.8623853 C48.048638,28.7522936 48.504845,28.5651376 48.9331395,28.3009174 C49.3614341,28.0366972 49.7178887,27.7013761 50.003876,27.293578 C50.2889481,26.8862385 50.4321705,26.3853211 50.4321705,25.7908257 L50.4321705,22.9834862 Z M54.1879845,27.7394495 C54.1879845,28.2018349 54.2479274,28.5321101 54.369186,28.7302752 C54.4895295,28.9284404 54.7256406,29.0275229 55.0775194,29.0275229 L55.4728682,29.0275229 C55.6261574,29.0275229 55.8023256,29.0059633 56,28.9614679 L56,31.5706422 C55.8682171,31.6142202 55.6975398,31.6637615 55.4893411,31.7192661 C55.2802272,31.7738532 55.0660799,31.8233945 54.8468992,31.8678899 C54.6268034,31.9114679 54.4071652,31.9449541 54.1879845,31.9669725 C53.9683463,31.9885321 53.7811962,32 53.627907,32 C52.8587155,32 52.2222222,31.8454128 51.7170543,31.5376147 C51.2114287,31.2298165 50.8819714,30.690367 50.7286822,29.9192661 C49.9819121,30.6458716 49.0649225,31.1743119 47.9777132,31.5045872 C46.8905039,31.8348624 45.8412737,32 44.8313953,32 C44.0622039,32 43.3268734,31.8954128 42.624031,31.6862385 C41.9207311,31.4770642 41.300253,31.1692661 40.7625969,30.7614679 C40.2240256,30.3541284 39.7957311,29.8366972 39.4777132,29.2091743 C39.1592377,28.5816514 39,27.85 39,27.012844 C39,25.9559633 39.1921835,25.0972477 39.5765504,24.4366972 C39.9604597,23.7761468 40.4660853,23.2591743 41.0920543,22.8844037 C41.7180233,22.5100917 42.4208656,22.240367 43.2005814,22.0752294 C43.9798396,21.9100917 44.7655039,21.7834862 45.5562016,21.6954128 C46.2366225,21.5633028 46.8850129,21.4697248 47.5,21.4146789 C48.1145295,21.3600917 48.6581342,21.266055 49.130814,21.133945 C49.6030362,21.0018349 49.9759636,20.7986239 50.250969,20.5229358 C50.5255168,20.2477064 50.6627907,19.8348624 50.6627907,19.2844037 C50.6627907,18.8004587 50.5474806,18.4041284 50.3168605,18.0954128 C50.0862403,17.787156 49.8007106,17.5504587 49.4602713,17.3853211 C49.1193745,17.2201835 48.7404985,17.1100917 48.3236434,17.0550459 C47.9058732,17.0004587 47.5109819,16.9724771 47.1375969,16.9724771 C46.0833333,16.9724771 45.2153047,17.1926606 44.5348837,17.6330275 C43.8540052,18.0738532 43.4691807,18.7559633 43.3817829,19.6807339 L39.625969,19.6807339 C39.6918605,18.5798165 39.9554264,17.666055 40.4166667,16.9394495 C40.877907,16.212844 41.4649817,15.6298165 42.1792636,15.1889908 C42.8926303,14.7486239 43.6998008,14.440367 44.6007752,14.2642202 C45.501292,14.0880734 46.4237726,14 47.3682171,14 C48.2023848,14 49.0264858,14.0880734 49.8391473,14.2642202 C50.6513512,14.440367 51.3821059,14.7266055 52.0300388,15.1229358 C52.677514,15.5192661 53.1996124,16.0311927 53.5949612,16.6587156 C53.9903101,17.2862385 54.1879845,18.0518349 54.1879845,18.9541284 L54.1879845,27.7394495 Z" id="Fill-7" fill="#FFFFFF"></path>
                <g id="编组" transform="translate(56.000000, 14.000000)">
                    <mask id="mask-4" fill="white">
                        <use xlink:href="#path-3"></use>
                    </mask>
                    <g id="Clip-10"></g>
                    <path d="M8.45446757,14.3820226 C9.29252162,14.3820226 10.0037649,14.2140226 10.5881973,13.8766642 C11.1721703,13.5397585 11.6467919,13.0941736 12.0106838,12.5399094 C12.3745757,11.9856453 12.6392243,11.3553057 12.8046297,10.6488906 C12.9700351,9.9429283 13.0527378,9.23062642 13.0527378,8.5133434 C13.0527378,7.79606038 12.9640622,7.10051321 12.7880892,6.42670189 C12.6111973,5.7533434 12.3414946,5.15515472 11.9776027,4.63349434 C11.6137108,4.11183396 11.1390892,3.69930566 10.5551162,3.39455094 C9.97068378,3.09024906 9.27000811,2.93809811 8.45446757,2.93809811 C7.61595405,2.93809811 6.91068378,3.11243774 6.33727838,3.45975849 C5.76341351,3.80753208 5.30027838,4.25855094 4.94787297,4.81281509 C4.59500811,5.36707925 4.34092703,5.9978717 4.18700811,6.70383396 C4.03217027,7.41024906 3.95544054,8.11123019 3.95544054,8.80677736 C3.95544054,9.50277736 4.0431973,10.1815698 4.22008919,10.8445132 C4.39606216,11.5079094 4.66668378,12.0997585 5.03057568,12.6214189 C5.39446757,13.1430792 5.8576027,13.5669283 6.41998108,13.892966 C6.98235946,14.2190038 7.66052162,14.3820226 8.45446757,14.3820226 L8.45446757,14.3820226 Z M16.8239811,16.4360604 C16.8239811,18.9791547 16.1012514,20.8751547 14.6571703,22.1254189 C13.2121703,23.3747774 11.1340351,24.0001358 8.42138649,24.0001358 C7.56127838,24.0001358 6.6951973,23.9127396 5.82452162,23.7393057 C4.95292703,23.564966 4.15898108,23.2715321 3.44268378,22.8590038 C2.72592703,22.4460226 2.12449459,21.9021736 1.63976486,21.2288151 C1.15457568,20.5550038 0.867413514,19.7290415 0.779656757,18.7509283 L4.5509,18.7509283 C4.66117027,19.2725887 4.84862973,19.6964377 5.11327838,20.0224755 C5.37792703,20.3485132 5.6921973,20.6039094 6.05608919,20.7886642 C6.41998108,20.972966 6.82200811,21.092966 7.26354865,21.1473057 C7.70462973,21.2011925 8.16730541,21.2288151 8.65295405,21.2288151 C10.1746838,21.2288151 11.2879541,20.8588528 11.9941432,20.1202868 C12.699873,19.3812679 13.0527378,18.3157585 13.0527378,16.925117 L13.0527378,14.3494189 L12.9865757,14.3494189 C12.4572784,15.2840604 11.7345486,16.0122113 10.8197649,16.5338717 C9.90452162,17.0555321 8.9176027,17.3163623 7.85900811,17.3163623 C6.4911973,17.3163623 5.32830541,17.0831547 4.36895405,16.6153811 C3.4096027,16.1480604 2.61565676,15.5068528 1.98711622,14.6917585 C1.35857568,13.8766642 0.900494595,12.9370415 0.614251351,11.8715321 C0.327548649,10.8064755 0.184197297,9.66579623 0.184197297,8.44813585 C0.184197297,7.31832453 0.36062973,6.2424 0.713494595,5.22036226 C1.0659,4.19877736 1.5736027,3.30217358 2.23522432,2.53055094 C2.89684595,1.75938113 3.70733243,1.14489057 4.66668378,0.688437736 C5.62603514,0.231984906 6.7121973,0.00375849057 7.92517027,0.00375849057 C9.00535946,0.00375849057 9.99779189,0.227003774 10.9024676,0.672135849 C11.8062243,1.11772075 12.5013865,1.81870189 12.9865757,2.77507925 L13.0527378,2.77507925 L13.0527378,0.460211321 L16.8239811,0.460211321 L16.8239811,16.4360604 Z" id="Fill-9" fill="#FFFFFF" mask="url(#mask-4)"></path>
                </g>
                <polygon id="Fill-11" fill="#FFFFFF" points="85 9 89.0983607 9 89.0983607 28.5210084 101 28.5210084 101 32 85 32"></polygon>
                <path d="M113.432171,22.9834862 C112.860654,23.3582569 112.157811,23.5834862 111.323643,23.6605505 C110.488561,23.7380734 109.654393,23.853211 108.819767,24.0073394 C108.424419,24.0733945 108.039594,24.1674312 107.666667,24.2880734 C107.292824,24.4091743 106.963367,24.5743119 106.678295,24.7834862 C106.392765,24.9931193 106.167636,25.2678899 106.002907,25.6091743 C105.838178,25.9509174 105.755814,26.3637615 105.755814,26.8477064 C105.755814,27.266055 105.876157,27.6183486 106.118217,27.9045872 C106.359362,28.1912844 106.650382,28.4165138 106.991279,28.5816514 C107.331261,28.746789 107.704646,28.8623853 108.111434,28.9284404 C108.517765,28.9944954 108.885659,29.0275229 109.215116,29.0275229 C109.631971,29.0275229 110.082687,28.9729358 110.565891,28.8623853 C111.048638,28.7522936 111.504845,28.5651376 111.93314,28.3009174 C112.361434,28.0366972 112.717889,27.7013761 113.003876,27.293578 C113.288948,26.8862385 113.432171,26.3853211 113.432171,25.7908257 L113.432171,22.9834862 Z M117.187984,27.7394495 C117.187984,28.2018349 117.247927,28.5321101 117.369186,28.7302752 C117.48953,28.9284404 117.725641,29.0275229 118.077519,29.0275229 L118.472868,29.0275229 C118.626157,29.0275229 118.802326,29.0059633 119,28.9614679 L119,31.5706422 C118.868217,31.6142202 118.69754,31.6637615 118.489341,31.7192661 C118.280227,31.7738532 118.06608,31.8233945 117.846899,31.8678899 C117.626803,31.9114679 117.407165,31.9449541 117.187984,31.9669725 C116.968346,31.9885321 116.781196,32 116.627907,32 C115.858716,32 115.222222,31.8454128 114.717054,31.5376147 C114.211429,31.2298165 113.881971,30.690367 113.728682,29.9192661 C112.981912,30.6458716 112.064922,31.1743119 110.977713,31.5045872 C109.890504,31.8348624 108.841274,32 107.831395,32 C107.062204,32 106.326873,31.8954128 105.624031,31.6862385 C104.920731,31.4770642 104.300253,31.1692661 103.762597,30.7614679 C103.224026,30.3541284 102.795731,29.8366972 102.477713,29.2091743 C102.159238,28.5816514 102,27.85 102,27.012844 C102,25.9559633 102.192183,25.0972477 102.57655,24.4366972 C102.96046,23.7761468 103.466085,23.2591743 104.092054,22.8844037 C104.718023,22.5100917 105.420866,22.240367 106.200581,22.0752294 C106.97984,21.9100917 107.765504,21.7834862 108.556202,21.6954128 C109.236623,21.5633028 109.885013,21.4697248 110.5,21.4146789 C111.11453,21.3600917 111.658134,21.266055 112.130814,21.133945 C112.603036,21.0018349 112.975964,20.7986239 113.250969,20.5229358 C113.525517,20.2477064 113.662791,19.8348624 113.662791,19.2844037 C113.662791,18.8004587 113.547481,18.4041284 113.31686,18.0954128 C113.08624,17.787156 112.800711,17.5504587 112.460271,17.3853211 C112.119374,17.2201835 111.740498,17.1100917 111.323643,17.0550459 C110.905873,17.0004587 110.510982,16.9724771 110.137597,16.9724771 C109.083333,16.9724771 108.215305,17.1926606 107.534884,17.6330275 C106.854005,18.0738532 106.469181,18.7559633 106.381783,19.6807339 L102.625969,19.6807339 C102.69186,18.5798165 102.955426,17.666055 103.416667,16.9394495 C103.877907,16.212844 104.464982,15.6298165 105.179264,15.1889908 C105.89263,14.7486239 106.699801,14.440367 107.600775,14.2642202 C108.501292,14.0880734 109.423773,14 110.368217,14 C111.202385,14 112.026486,14.0880734 112.839147,14.2642202 C113.651351,14.440367 114.382106,14.7266055 115.030039,15.1229358 C115.677514,15.5192661 116.199612,16.0311927 116.594961,16.6587156 C116.99031,17.2862385 117.187984,18.0518349 117.187984,18.9541284 L117.187984,27.7394495 Z" id="Fill-13" fill="#FFFFFF"></path>
                <path d="M133.4375,23.4065934 C133.4375,22.6694139 133.34375,21.9532967 133.15625,21.2582418 C132.96875,20.5631868 132.6875,19.9471154 132.3125,19.4100275 C131.9375,18.8729396 131.46875,18.4416018 130.90625,18.1146978 C130.34375,17.7886714 129.697917,17.625 128.96875,17.625 C127.46875,17.625 126.338542,18.1515568 125.578125,19.2046703 C124.817274,20.2582227 124.4375,21.6588637 124.4375,23.4065934 C124.4375,24.228022 124.536024,24.9915293 124.734375,25.6971154 C124.932292,26.4031403 125.229167,27.0082418 125.625,27.5137363 C126.020399,28.0192308 126.494792,28.4194139 127.046875,28.7142857 C127.598524,29.0095963 128.239149,29.1565934 128.96875,29.1565934 C129.78125,29.1565934 130.46875,28.988534 131.03125,28.6510989 C131.59375,28.3145414 132.057292,27.8770604 132.421875,27.3399725 C132.786458,26.8028846 133.046875,26.1925176 133.203125,25.5075549 C133.359375,24.8234699 133.4375,24.1227106 133.4375,23.4065934 L133.4375,23.4065934 Z M121,9 L124.5625,9 L124.5625,17.3406593 L124.625,17.3406593 C124.875,16.940915 125.176649,16.5824176 125.53125,16.2664835 C125.885417,15.9505495 126.276042,15.6820055 126.703125,15.4608516 C127.129774,15.2396978 127.578125,15.0711996 128.046875,14.9553571 C128.515625,14.8399534 128.979167,14.7815934 129.4375,14.7815934 C130.707899,14.7815934 131.817708,15.0080128 132.765625,15.4608516 C133.713542,15.9141293 134.5,16.5350275 135.125,17.3248626 C135.75,18.1146978 136.21875,19.036611 136.53125,20.0892857 C136.84375,21.1428381 137,22.2692308 137,23.4697802 C137,24.5654571 136.859375,25.6291018 136.578125,26.6607143 C136.296875,27.6932044 135.869792,28.6037088 135.296875,29.393544 C134.723524,30.1833791 134,30.8152473 133.125,31.2891484 C132.25,31.7630495 131.21875,32 130.03125,32 C129.489149,32 128.942708,31.963141 128.390625,31.8894231 C127.838542,31.8157051 127.3125,31.673096 126.8125,31.4629121 C126.3125,31.2527282 125.859375,30.9784799 125.453125,30.6414835 C125.046875,30.304926 124.707899,29.8626183 124.4375,29.3145604 L124.375,29.3145604 L124.375,31.5576923 L121,31.5576923 L121,9 Z" id="Fill-15" fill="#FFFFFF"></path>
                <path d="M143.717391,26.0550459 C143.825634,27.156422 144.23913,27.9270642 144.956522,28.3669725 C145.673913,28.8077982 146.532156,29.0275229 147.532609,29.0275229 C147.879982,29.0275229 148.276721,29 148.722826,28.9449541 C149.168025,28.890367 149.586957,28.7857798 149.978261,28.6311927 C150.369565,28.4775229 150.690217,28.2513761 150.940217,27.9541284 C151.189764,27.6568807 151.303895,27.2665138 151.282609,26.7816514 C151.260417,26.2977064 151.086957,25.9013761 150.76087,25.5926606 C150.434783,25.2844037 150.015851,25.037156 149.505435,24.8495413 C148.994112,24.662844 148.413043,24.5027523 147.76087,24.3706422 C147.108696,24.2385321 146.445199,24.0958716 145.771739,23.9412844 C145.075634,23.7876147 144.407156,23.6 143.766304,23.3798165 C143.124547,23.1600917 142.54846,22.862844 142.038043,22.4880734 C141.527174,22.1142202 141.119112,21.6353211 140.815217,21.0513761 C140.510417,20.4683486 140.358696,19.746789 140.358696,18.8880734 C140.358696,17.9633028 140.581069,17.187156 141.027174,16.559633 C141.472373,15.9321101 142.038043,15.4261468 142.722826,15.040367 C143.407609,14.6555046 144.168478,14.3857798 145.005435,14.2311927 C145.841938,14.0775229 146.640851,14 147.402174,14 C148.271286,14 149.102808,14.0940367 149.896739,14.2807339 C150.690217,14.4683486 151.407156,14.7711009 152.048913,15.1889908 C152.689764,15.6077982 153.222826,16.1527523 153.646739,16.8238532 C154.070652,17.4958716 154.336504,18.3050459 154.445652,19.2513761 L150.565217,19.2513761 C150.390851,18.3490826 149.983243,17.743578 149.342391,17.4348624 C148.700634,17.1270642 147.966938,16.9724771 147.141304,16.9724771 C146.880435,16.9724771 146.570652,16.9949541 146.211957,17.0385321 C145.853261,17.0830275 145.515851,17.1655963 145.201087,17.2862385 C144.88587,17.4073394 144.619112,17.5834862 144.402174,17.8146789 C144.18433,18.0458716 144.076087,18.3490826 144.076087,18.7229358 C144.076087,19.1853211 144.233696,19.5600917 144.548913,19.8458716 C144.863678,20.1321101 145.276721,20.3692661 145.788043,20.5559633 C146.29846,20.7431193 146.880435,20.9027523 147.532609,21.0348624 C148.184783,21.1669725 148.858243,21.3105505 149.554348,21.4642202 C150.227808,21.6188073 150.891304,21.8059633 151.543478,22.0256881 C152.195652,22.2458716 152.776721,22.543578 153.288043,22.9174312 C153.79846,23.2922018 154.211504,23.7651376 154.527174,24.3376147 C154.841938,24.9105505 155,25.6151376 155,26.4513761 C155,27.4646789 154.771739,28.3229358 154.315217,29.0275229 C153.858696,29.7325688 153.265851,30.3050459 152.538043,30.7449541 C151.80933,31.1857798 151,31.5045872 150.108696,31.7027523 C149.216938,31.9009174 148.336504,32 147.467391,32 C146.401721,32 145.418025,31.8788991 144.516304,31.6366972 C143.613678,31.3949541 142.831069,31.0256881 142.168478,30.5302752 C141.504982,30.0348624 140.983243,29.4188073 140.603261,28.6807339 C140.222373,27.943578 140.021286,27.0678899 140,26.0550459 L143.717391,26.0550459 Z" id="Fill-17" fill="#FFFFFF"></path>
            </g>
        </g>
    </g>
</svg>