<?xml version="1.0" encoding="UTF-8"?>
<svg width="55px" height="55px" viewBox="0 0 55 55" version="1.1" xmlns="http://www.w3.org/2000/svg" xmlns:xlink="http://www.w3.org/1999/xlink">
    <!-- Generator: Sketch 60 (88103) - https://sketch.com -->
    <title>twitter</title>
    <desc>Created with Sketch.</desc>
    <g id="Page-1" stroke="none" stroke-width="1" fill="none" fill-rule="evenodd">
        <g id="Xag-Labs-" transform="translate(-627.000000, -3748.000000)">
            <g id="keep-in-touch" transform="translate(498.000000, 3748.000000)">
                <g id="social">
                    <g id="twitter" transform="translate(129.000000, 0.000000)">
                        <polygon id="Fill-1" fill-opacity="0.2" fill="#FFFFFF" points="0 54.4057761 54.3969808 54.4057761 54.3969808 -0.000799579327 0 -0.000799579327"></polygon>
                        <path d="M40.8441112,20.0769572 C39.8430379,20.5215233 38.7636058,20.8221651 37.6345998,20.9580936 C38.7891923,20.2656579 39.6751262,19.1702342 40.0909075,17.8653207 C39.0114754,18.5065834 37.8153047,18.9703394 36.5407752,19.2198081 C35.5237103,18.1339794 34.0700751,17.454337 32.4613215,17.454337 C29.3765445,17.454337 26.8738612,19.9602186 26.8738612,23.0449956 C26.8738612,23.4847642 26.9202368,23.9085413 27.0177855,24.3179259 C22.3722296,24.0844487 18.254396,21.8616182 15.4958474,18.4761993 C15.0145006,19.3061627 14.7394453,20.2656579 14.7394453,21.2907186 C14.7394453,23.2272997 15.7261262,24.9399986 17.226137,25.9426711 C16.3098191,25.9138862 15.4478726,25.6612192 14.6930697,25.2438388 L14.6930697,25.3126026 C14.6930697,28.0231765 16.6200559,30.2827877 19.1787097,30.7945184 C18.7085571,30.9256495 18.2160162,30.991215 17.7042855,30.991215 C17.3444748,30.991215 16.9926599,30.9592318 16.6536382,30.8936663 C17.3636647,33.1116993 19.4281785,34.7300479 21.8748912,34.7732252 C19.9606983,36.273236 17.5507662,37.1671657 14.9329435,37.1671657 C14.4819808,37.1671657 14.0358155,37.1415791 13.5992452,37.0904061 C16.0731436,38.6751723 19.0107981,39.6010852 22.1675373,39.6010852 C32.4501274,39.6010852 38.0711701,31.0839662 38.0711701,23.694254 C38.0711701,23.4511819 38.0663726,23.209709 38.0551785,22.9714343 C39.1474038,22.1814499 40.0973041,21.1979674 40.8441112,20.0769572" id="Fill-2" fill="#FEFEFE"></path>
                    </g>
                </g>
            </g>
        </g>
    </g>
</svg>