<?xml version="1.0" encoding="UTF-8"?>
<svg width="55px" height="55px" viewBox="0 0 55 55" version="1.1" xmlns="http://www.w3.org/2000/svg" xmlns:xlink="http://www.w3.org/1999/xlink">
    <!-- Generator: Sketch 60 (88103) - https://sketch.com -->
    <title>youtube</title>
    <desc>Created with Sketch.</desc>
    <g id="Page-1" stroke="none" stroke-width="1" fill="none" fill-rule="evenodd">
        <g id="Xag-Labs-" transform="translate(-757.000000, -3748.000000)">
            <g id="keep-in-touch" transform="translate(498.000000, 3748.000000)">
                <g id="social">
                    <g id="youtube" transform="translate(259.000000, 0.000000)">
                        <polygon id="Fill-1" fill-opacity="0.2" fill="#FFFFFF" points="0 54.4057761 54.3969808 54.4057761 54.3969808 -0.000799579327 0 -0.000799579327"></polygon>
                        <path d="M29.8929128,31.8645155 C29.8113557,31.7541736 29.6738281,31.698203 29.5091147,31.698203 C29.4259585,31.698203 29.330009,31.7125954 29.2484519,31.7541736 C29.1652956,31.7957517 29.0709453,31.8645155 28.9893882,31.9476718 L28.9893882,35.8128382 C29.0837385,35.9087877 29.1940805,35.991944 29.29003,36.031923 C29.3859795,36.0735011 29.481929,36.1006868 29.5778785,36.1006868 C29.7425919,36.1006868 29.8513347,36.0607078 29.9200985,35.9631591 C29.9888623,35.8832012 30.0304404,35.7440744 30.0304404,35.5393821 L30.0304404,32.3314698 C30.0304404,32.1235792 29.9888623,31.9732583 29.8929128,31.8645155 L29.8929128,31.8645155 Z M29.8929128,31.8645155 C29.8113557,31.7541736 29.6738281,31.698203 29.5091147,31.698203 C29.4259585,31.698203 29.330009,31.7125954 29.2484519,31.7541736 C29.1652956,31.7957517 29.0709453,31.8645155 28.9893882,31.9476718 L28.9893882,35.8128382 C29.0837385,35.9087877 29.1940805,35.991944 29.29003,36.031923 C29.3859795,36.0735011 29.481929,36.1006868 29.5778785,36.1006868 C29.7425919,36.1006868 29.8513347,36.0607078 29.9200985,35.9631591 C29.9888623,35.8832012 30.0304404,35.7440744 30.0304404,35.5393821 L30.0304404,32.3314698 C30.0304404,32.1235792 29.9888623,31.9732583 29.8929128,31.8645155 L29.8929128,31.8645155 Z M29.5091147,31.698203 C29.4259585,31.698203 29.330009,31.7125954 29.2484519,31.7541736 C29.1652956,31.7957517 29.0709453,31.8645155 28.9893882,31.9476718 L28.9893882,35.8128382 C29.0837385,35.9087877 29.1940805,35.991944 29.29003,36.031923 C29.3859795,36.0735011 29.481929,36.1006868 29.5778785,36.1006868 C29.7425919,36.1006868 29.8513347,36.0607078 29.9200985,35.9631591 C29.9888623,35.8832012 30.0304404,35.7440744 30.0304404,35.5393821 L30.0304404,32.3314698 C30.0304404,32.1235792 29.9888623,31.9732583 29.8929128,31.8645155 C29.8113557,31.7541736 29.6738281,31.698203 29.5091147,31.698203 L29.5091147,31.698203 Z M35.609905,34.0441688 L33.2367535,34.0441688 L33.2367535,35.2099554 C33.2367535,35.5393821 33.2639392,35.760066 33.3486947,35.8832012 C33.4286526,36.0191297 33.5805727,36.0735011 33.7724717,36.0735011 C33.9787632,36.0735011 34.1146916,36.0191297 34.1978479,35.9087877 C34.279405,35.8128382 34.3209831,35.5649686 34.3209831,35.2099554 L34.3209831,34.9221069 L35.609905,34.9221069 L35.609905,35.2355419 C35.609905,35.8832012 35.4451916,36.3613496 35.1285582,36.6763839 C34.8279164,37.0058106 34.3609621,37.1577306 33.745286,37.1577306 C33.1823822,37.1577306 32.7442127,36.9914181 32.4275793,36.6491982 C32.1141442,36.3069782 31.9494308,35.8400239 31.9494308,35.2355419 L31.9494308,32.4530059 C31.9494308,31.9188869 32.1269374,31.4807174 32.485149,31.1384975 C32.8257698,30.8074716 33.2783317,30.6315642 33.8412355,30.6315642 C34.4041394,30.6315642 34.8423088,30.7946784 35.1429507,31.1097126 C35.4451916,31.426346 35.609905,31.8645155 35.609905,32.4530059 L35.609905,34.0441688 Z M31.3049699,35.7024963 C31.3049699,36.1422649 31.2090204,36.4844849 31.0171213,36.717962 C30.8252223,36.9514392 30.5373737,37.0745744 30.1679681,37.0745744 C29.9200985,37.0745744 29.713807,37.0313971 29.521908,36.9386459 C29.330009,36.8394981 29.1541015,36.7035696 28.9893882,36.5116706 L28.9893882,36.9914181 L27.7404453,36.9914181 L27.7404453,28.5878394 L28.9893882,28.5878394 L28.9893882,31.2888184 C29.1541015,31.1097126 29.330009,30.9609909 29.521908,30.8634422 C29.713807,30.7658935 29.9057061,30.7131213 30.0976051,30.7131213 C30.4830023,30.7131213 30.7836442,30.8490498 30.9899356,31.1097126 C31.1962271,31.3703755 31.3049699,31.7541736 31.3049699,32.262706 L31.3049699,35.7024963 Z M26.8081358,36.9914181 L25.560792,36.9914181 L25.560792,36.3069782 C25.3417073,36.5660419 25.0954368,36.7595401 24.8491664,36.8826754 C24.6012968,37.020203 24.3678197,37.0889668 24.1343425,37.0889668 C23.8480931,37.0889668 23.6290084,36.9914181 23.4770883,36.7995191 C23.3395606,36.6220125 23.2707968,36.3485564 23.2707968,35.9775516 L23.2707968,30.7802859 L24.5053473,30.7802859 L24.5053473,35.5537745 C24.5053473,35.689703 24.532533,35.800045 24.5885035,35.8672096 C24.6284825,35.9375726 24.724432,35.9631591 24.834774,35.9631591 C24.9291243,35.9631591 25.0410654,35.9231802 25.1785931,35.8272306 C25.328914,35.7440744 25.4520492,35.6337325 25.560792,35.4962048 L25.560792,30.7802859 L26.8081358,30.7802859 L26.8081358,36.9914181 Z M22.7238846,29.8079975 L21.2702493,29.8079975 L21.2702493,36.9914181 L19.8709855,36.9914181 L19.8709855,29.8079975 L18.4317427,29.8079975 L18.4317427,28.5878394 L22.7238846,28.5878394 L22.7238846,29.8079975 Z M36.9260126,27.0798328 L17.4882391,27.0798328 C15.3613581,27.0798328 13.6070811,28.8341099 13.6070811,30.972185 L13.6070811,34.9364993 C13.6070811,37.0745744 15.3613581,38.8176573 17.4882391,38.8176573 L36.9260126,38.8176573 C39.0512944,38.8176573 40.8055715,37.0745744 40.8055715,34.9364993 L40.8055715,30.972185 C40.8055715,28.8341099 39.0512944,27.0798328 36.9260126,27.0798328 L36.9260126,27.0798328 Z M29.8929128,31.8645155 C29.8113557,31.7541736 29.6738281,31.698203 29.5091147,31.698203 C29.4259585,31.698203 29.330009,31.7125954 29.2484519,31.7541736 C29.1652956,31.7957517 29.0709453,31.8645155 28.9893882,31.9476718 L28.9893882,35.8128382 C29.0837385,35.9087877 29.1940805,35.991944 29.29003,36.031923 C29.3859795,36.0735011 29.481929,36.1006868 29.5778785,36.1006868 C29.7425919,36.1006868 29.8513347,36.0607078 29.9200985,35.9631591 C29.9888623,35.8832012 30.0304404,35.7440744 30.0304404,35.5393821 L30.0304404,32.3314698 C30.0304404,32.1235792 29.9888623,31.9732583 29.8929128,31.8645155 L29.8929128,31.8645155 Z M29.8929128,31.8645155 C29.8113557,31.7541736 29.6738281,31.698203 29.5091147,31.698203 C29.4259585,31.698203 29.330009,31.7125954 29.2484519,31.7541736 C29.1652956,31.7957517 29.0709453,31.8645155 28.9893882,31.9476718 L28.9893882,35.8128382 C29.0837385,35.9087877 29.1940805,35.991944 29.29003,36.031923 C29.3859795,36.0735011 29.481929,36.1006868 29.5778785,36.1006868 C29.7425919,36.1006868 29.8513347,36.0607078 29.9200985,35.9631591 C29.9888623,35.8832012 30.0304404,35.7440744 30.0304404,35.5393821 L30.0304404,32.3314698 C30.0304404,32.1235792 29.9888623,31.9732583 29.8929128,31.8645155 L29.8929128,31.8645155 Z M34.1978479,31.8933004 C34.279405,32.0020431 34.3209831,32.192343 34.3209831,32.4386135 L34.3209831,33.0702811 L33.2367535,33.0702811 L33.2367535,32.4386135 C33.2367535,32.192343 33.2639392,32.0020431 33.3614879,31.8933004 C33.443045,31.7813593 33.5805727,31.7125954 33.7868641,31.7125954 C33.9787632,31.7125954 34.1146916,31.7813593 34.1978479,31.8933004 L34.1978479,31.8933004 Z M23.2979825,15.5882787 L22.3272932,19.2919302 L22.2153521,19.2919302 L21.2014855,15.5882787 L19.6119218,15.5882787 L21.4909332,21.1821357 L21.4909332,24.844209 L23.0661045,24.844209 L23.0661045,21.0046291 L24.8891454,15.5882787 L23.2979825,15.5882787 Z M27.6301033,23.2530462 C27.6301033,23.4321519 27.5757319,23.5696796 27.46539,23.6784224 C27.3566472,23.7887643 27.2063263,23.8415365 27.0144272,23.8415365 C26.8353215,23.8415365 26.6865997,23.7887643 26.589051,23.6784224 C26.4947007,23.5824728 26.4371309,23.4321519 26.4371309,23.2530462 L26.4371309,19.5238082 C26.4371309,19.3734873 26.4947007,19.250352 26.6018443,19.168795 C26.699393,19.0712463 26.8497139,19.0312673 27.0144272,19.0312673 C27.1919338,19.0312673 27.3438539,19.0712463 27.46539,19.168795 C27.5757319,19.250352 27.6301033,19.3734873 27.6301033,19.5238082 L27.6301033,23.2530462 Z M28.5080414,18.3452282 C28.1370366,18.0030083 27.6588882,17.838295 27.083191,17.838295 C26.4515234,17.838295 25.9445901,18.0030083 25.560792,18.3180425 C25.1897872,18.6330768 24.9994873,19.0424614 24.9994873,19.5781796 L24.9994873,23.1171177 C24.9994873,23.7056081 25.1897872,24.15817 25.5463996,24.5019891 C25.9174044,24.844209 26.4115444,25.0233148 27.0144272,25.0233148 C27.6444957,25.0233148 28.1530282,24.8586014 28.5080414,24.5147823 C28.8790462,24.1853556 29.0565528,23.7327938 29.0565528,23.1443034 L29.0565528,19.6213569 C29.0565528,19.1000311 28.8646538,18.6746549 28.5080414,18.3452282 L28.5080414,18.3452282 Z M32.7713984,18.0158016 L32.7713984,23.1986748 C32.6482632,23.3489957 32.4979422,23.4721309 32.3476213,23.5696796 C32.182908,23.6656291 32.0597728,23.7184013 31.9494308,23.7184013 C31.8262956,23.7184013 31.7303461,23.6784224 31.6759747,23.6096585 C31.6056117,23.5265023 31.578426,23.4193587 31.578426,23.2530462 L31.578426,18.0158016 L30.1807614,18.0158016 L30.1807614,23.7184013 C30.1807614,24.1309843 30.2623184,24.4332252 30.4270318,24.6379175 C30.5917451,24.844209 30.8396147,24.9401585 31.154649,24.9401585 C31.4281051,24.9401585 31.688768,24.8713947 31.9766165,24.7354662 C32.2500727,24.5835462 32.5123347,24.3772547 32.7713984,24.0910053 L32.7713984,24.844209 L34.1706622,24.844209 L34.1706622,18.0158016 L32.7713984,18.0158016 Z" id="Fill-2" fill="#FEFEFE"></path>
                    </g>
                </g>
            </g>
        </g>
    </g>
</svg>